<svg xmlns="http://www.w3.org/2000/svg" width="32" height="32" viewBox="0 0 32 32">
  <!-- Background with rounded corners -->
  <rect width="32" height="32" rx="8" fill="#1e1e2e"/>
  <rect width="32" height="32" rx="8" fill="url(#gradient)" opacity="0.3"/>

  <!-- Border -->
  <rect x="1" y="1" width="30" height="30" rx="7" fill="none" stroke="#cba6f7" stroke-opacity="0.5" stroke-width="1"/>

  <!-- Rocket icon (Lucide) scaled and centered -->
  <g transform="translate(6, 6) scale(0.833)" stroke="#cba6f7" stroke-width="2" stroke-linecap="round" stroke-linejoin="round" fill="none">
    <path d="M4.5 16.5c-1.5 1.26-2 5-2 5s3.74-.5 5-2c.71-.84.7-2.13-.09-2.91a2.18 2.18 0 0 0-2.91-.09z"/>
    <path d="m12 15-3-3a22 22 0 0 1 2-3.95A12.88 12.88 0 0 1 22 2c0 2.72-.78 7.5-6 11a22.35 22.35 0 0 1-4 2z"/>
    <path d="M9 12H4s.55-3.03 2-4c1.62-1.08 5 0 5 0"/>
    <path d="M12 15v5s3.03-.55 4-2c1.08-1.62 0-5 0-5"/>
  </g>

  <defs>
    <linearGradient id="gradient" x1="0%" y1="0%" x2="100%" y2="100%">
      <stop offset="0%" stop-color="#cba6f7"/>
      <stop offset="100%" stop-color="#89b4fa"/>
    </linearGradient>
  </defs>
</svg>
