<svg xmlns="http://www.w3.org/2000/svg" xmlns:xlink="http://www.w3.org/1999/xlink" width="500" zoomAndPan="magnify" viewBox="0 0 375 374.999991" height="500" preserveAspectRatio="xMidYMid meet" version="1.0"><defs><clipPath id="2c93c3eaa3"><path d="M 13.183594 127 L 209.445312 127 L 209.445312 248 L 13.183594 248 Z M 13.183594 127 " clip-rule="nonzero"/></clipPath><clipPath id="efe8a13c7b"><path d="M 157.722656 127.039062 C 136.730469 127.039062 119.851562 138.445312 111.632812 155.785156 C 106.84375 145.515625 98.402344 136.851562 88.132812 131.828125 L 83.566406 141.410156 C 97.257812 148.023438 106.15625 162.171875 106.15625 179.511719 C 106.15625 203.550781 89.03125 221.492188 65.53125 221.71875 C 41.8125 221.941406 23.503906 202.609375 23.796875 178.890625 C 24.003906 162.0625 32.621094 148.402344 45.917969 141.863281 L 41.355469 132.285156 C 24.25 140.726562 13.300781 158.292969 13.300781 179.511719 C 13.300781 209.171875 34.976562 232.21875 65.09375 232.21875 C 82.4375 232.21875 97.039062 224.457031 106.386719 211.679688 L 106.386719 247.957031 L 116.425781 247.957031 L 116.425781 178.425781 C 116.425781 176.394531 116.519531 174.359375 116.816406 172.34375 C 119.867188 151.828125 136.144531 137.074219 157.71875 137.074219 C 182.132812 137.074219 199.242188 155.328125 199.242188 179.511719 C 199.242188 203.695312 181.898438 221.949219 157.949219 221.949219 C 149.847656 221.949219 142.5625 220.035156 136.511719 216.542969 L 136.511719 227.652344 C 142.941406 230.429688 150.230469 231.988281 157.949219 231.988281 C 187.378906 231.988281 209.285156 209.171875 209.285156 179.511719 C 209.285156 149.851562 187.609375 127.039062 157.722656 127.039062 " clip-rule="nonzero"/></clipPath><clipPath id="48a48116fd"><path d="M 0.199219 0 L 196.445312 0 L 196.445312 121 L 0.199219 121 Z M 0.199219 0 " clip-rule="nonzero"/></clipPath><clipPath id="6444f54a13"><path d="M 144.722656 0.0390625 C 123.730469 0.0390625 106.851562 11.445312 98.632812 28.785156 C 93.84375 18.515625 85.402344 9.851562 75.132812 4.828125 L 70.566406 14.410156 C 84.257812 21.023438 93.15625 35.171875 93.15625 52.511719 C 93.15625 76.550781 76.03125 94.492188 52.53125 94.71875 C 28.8125 94.941406 10.503906 75.609375 10.796875 51.890625 C 11.003906 35.0625 19.621094 21.402344 32.917969 14.863281 L 28.355469 5.285156 C 11.25 13.726562 0.300781 31.292969 0.300781 52.511719 C 0.300781 82.171875 21.976562 105.21875 52.09375 105.21875 C 69.4375 105.21875 84.039062 97.457031 93.386719 84.679688 L 93.386719 120.957031 L 103.425781 120.957031 L 103.425781 51.425781 C 103.425781 49.394531 103.519531 47.359375 103.816406 45.34375 C 106.867188 24.828125 123.144531 10.074219 144.71875 10.074219 C 169.132812 10.074219 186.242188 28.328125 186.242188 52.511719 C 186.242188 76.695312 168.898438 94.949219 144.949219 94.949219 C 136.847656 94.949219 129.5625 93.035156 123.511719 89.542969 L 123.511719 100.652344 C 129.941406 103.429688 137.230469 104.988281 144.949219 104.988281 C 174.378906 104.988281 196.285156 82.171875 196.285156 52.511719 C 196.285156 22.851562 174.609375 0.0390625 144.722656 0.0390625 " clip-rule="nonzero"/></clipPath><clipPath id="bc479e564c"><rect x="0" width="197" y="0" height="121"/></clipPath><clipPath id="7efc7218d4"><path d="M 121.328125 142.441406 L 193.921875 142.441406 L 193.921875 248 L 121.328125 248 Z M 121.328125 142.441406 " clip-rule="nonzero"/></clipPath><clipPath id="f3e4b05173"><path d="M 131.492188 205.753906 C 137.882812 212.371094 147.007812 216.480469 157.730469 216.480469 C 178.492188 216.480469 193.777344 200.507812 193.777344 179.519531 C 193.777344 158.53125 178.492188 142.5625 157.730469 142.5625 C 136.738281 142.5625 121.453125 158.53125 121.453125 179.519531 L 121.453125 247.964844 L 131.492188 247.964844 Z M 157.730469 152.589844 C 173.246094 152.589844 183.058594 164.453125 183.058594 179.511719 C 183.058594 195.027344 173.246094 206.667969 157.730469 206.667969 C 142.214844 206.667969 132.179688 195.261719 132.179688 179.511719 C 132.179688 163.996094 142.449219 152.589844 157.730469 152.589844 " clip-rule="nonzero"/></clipPath><clipPath id="317e0ed4d5"><path d="M 0.441406 0.558594 L 72.921875 0.558594 L 72.921875 106 L 0.441406 106 Z M 0.441406 0.558594 " clip-rule="nonzero"/></clipPath><clipPath id="d20031ea3f"><path d="M 10.492188 63.753906 C 16.882812 70.371094 26.007812 74.480469 36.730469 74.480469 C 57.492188 74.480469 72.777344 58.507812 72.777344 37.519531 C 72.777344 16.53125 57.492188 0.5625 36.730469 0.5625 C 15.738281 0.5625 0.453125 16.53125 0.453125 37.519531 L 0.453125 105.964844 L 10.492188 105.964844 Z M 36.730469 10.589844 C 52.246094 10.589844 62.058594 22.453125 62.058594 37.511719 C 62.058594 53.027344 52.246094 64.667969 36.730469 64.667969 C 21.214844 64.667969 11.179688 53.261719 11.179688 37.511719 C 11.179688 21.996094 21.449219 10.589844 36.730469 10.589844 " clip-rule="nonzero"/></clipPath><clipPath id="08d042ab10"><rect x="0" width="73" y="0" height="106"/></clipPath><clipPath id="f0be83ede8"><path d="M 292.554688 145 L 362 145 L 362 215.539062 L 292.554688 215.539062 Z M 292.554688 145 " clip-rule="nonzero"/></clipPath><clipPath id="3bc90c7ac9"><path d="M 327.019531 145.292969 C 307.167969 145.292969 292.566406 161.265625 292.566406 182.25 L 292.566406 215.109375 L 302.601562 215.109375 L 302.601562 182.25 C 302.601562 166.734375 312.183594 155.097656 327.019531 155.097656 C 341.851562 155.097656 351.65625 166.503906 351.65625 182.25 L 351.65625 215.109375 L 361.695312 215.109375 L 361.695312 182.25 C 361.695312 161.265625 347.324219 145.292969 327.019531 145.292969 " clip-rule="nonzero"/></clipPath><clipPath id="a01bff5240"><path d="M 0.558594 0.199219 L 69.921875 0.199219 L 69.921875 70.28125 L 0.558594 70.28125 Z M 0.558594 0.199219 " clip-rule="nonzero"/></clipPath><clipPath id="9ef285ea39"><path d="M 35.019531 0.292969 C 15.167969 0.292969 0.566406 16.265625 0.566406 37.25 L 0.566406 70.109375 L 10.601562 70.109375 L 10.601562 37.25 C 10.601562 21.734375 20.183594 10.097656 35.019531 10.097656 C 49.851562 10.097656 59.65625 21.503906 59.65625 37.25 L 59.65625 70.109375 L 69.695312 70.109375 L 69.695312 37.25 C 69.695312 16.265625 55.324219 0.292969 35.019531 0.292969 " clip-rule="nonzero"/></clipPath><clipPath id="ac2530e230"><rect x="0" width="70" y="0" height="71"/></clipPath><clipPath id="f6412061a5"><path d="M 28.703125 142.441406 L 101.300781 142.441406 L 101.300781 216.539062 L 28.703125 216.539062 Z M 28.703125 142.441406 " clip-rule="nonzero"/></clipPath><clipPath id="12105c1faf"><path d="M 28.816406 179.511719 C 28.816406 200.5 43.875 216.472656 65.09375 216.472656 C 85.855469 216.472656 101.140625 200.5 101.140625 179.511719 C 101.140625 158.527344 85.855469 142.554688 65.09375 142.554688 C 44.101562 142.554688 28.816406 158.527344 28.816406 179.511719 M 65.09375 152.589844 C 80.609375 152.589844 90.421875 164.453125 90.421875 179.511719 C 90.421875 195.027344 80.609375 206.660156 65.09375 206.660156 C 49.578125 206.660156 39.542969 195.261719 39.542969 179.511719 C 39.542969 163.996094 49.8125 152.589844 65.09375 152.589844 " clip-rule="nonzero"/></clipPath><clipPath id="4f92de8c9b"><path d="M 0.800781 0.441406 L 73.28125 0.441406 L 73.28125 74.480469 L 0.800781 74.480469 Z M 0.800781 0.441406 " clip-rule="nonzero"/></clipPath><clipPath id="a5cf366dac"><path d="M 0.816406 37.511719 C 0.816406 58.5 15.875 74.472656 37.09375 74.472656 C 57.855469 74.472656 73.140625 58.5 73.140625 37.511719 C 73.140625 16.527344 57.855469 0.554688 37.09375 0.554688 C 16.101562 0.554688 0.816406 16.527344 0.816406 37.511719 M 37.09375 10.589844 C 52.609375 10.589844 62.421875 22.453125 62.421875 37.511719 C 62.421875 53.027344 52.609375 64.660156 37.09375 64.660156 C 21.578125 64.660156 11.542969 53.261719 11.542969 37.511719 C 11.542969 21.996094 21.8125 10.589844 37.09375 10.589844 " clip-rule="nonzero"/></clipPath><clipPath id="bf18bb394e"><rect x="0" width="74" y="0" height="75"/></clipPath><clipPath id="f3a2f5338f"><path d="M 214.449219 142.441406 L 287.546875 142.441406 L 287.546875 216.539062 L 214.449219 216.539062 Z M 214.449219 142.441406 " clip-rule="nonzero"/></clipPath><clipPath id="0e871d373b"><path d="M 274.746094 189.554688 C 271.449219 199.6875 262.863281 206.667969 251.042969 206.667969 C 237.121094 206.667969 227.773438 197.542969 225.945312 184.535156 L 286.785156 184.535156 C 286.980469 182.898438 287.09375 181.222656 287.09375 179.511719 C 287.09375 158.527344 271.8125 142.554688 251.050781 142.554688 C 230.054688 142.554688 214.769531 158.527344 214.769531 179.511719 C 214.769531 200.5 229.832031 216.472656 251.050781 216.472656 C 268.347656 216.472656 281.832031 205.382812 285.855469 189.550781 Z M 251.042969 152.597656 C 264.964844 152.597656 274.085938 162.179688 275.914062 174.730469 L 225.714844 174.730469 C 227.765625 161.496094 237.351562 152.597656 251.042969 152.597656 " clip-rule="nonzero"/></clipPath><clipPath id="7081a070d4"><path d="M 0.558594 0.441406 L 73.28125 0.441406 L 73.28125 74.480469 L 0.558594 74.480469 Z M 0.558594 0.441406 " clip-rule="nonzero"/></clipPath><clipPath id="07a0b2fcb0"><path d="M 60.746094 47.554688 C 57.449219 57.6875 48.863281 64.667969 37.042969 64.667969 C 23.121094 64.667969 13.773438 55.542969 11.945312 42.535156 L 72.785156 42.535156 C 72.980469 40.898438 73.09375 39.222656 73.09375 37.511719 C 73.09375 16.527344 57.8125 0.554688 37.050781 0.554688 C 16.054688 0.554688 0.769531 16.527344 0.769531 37.511719 C 0.769531 58.5 15.832031 74.472656 37.050781 74.472656 C 54.347656 74.472656 67.832031 63.382812 71.855469 47.550781 Z M 37.042969 10.597656 C 50.964844 10.597656 60.085938 20.179688 61.914062 32.730469 L 11.714844 32.730469 C 13.765625 19.496094 23.351562 10.597656 37.042969 10.597656 " clip-rule="nonzero"/></clipPath><clipPath id="34dd01b7d4"><rect x="0" width="74" y="0" height="75"/></clipPath></defs><g clip-path="url(#2c93c3eaa3)"><g clip-path="url(#efe8a13c7b)"><g transform="matrix(1, 0, 0, 1, 13, 127)"><g clip-path="url(#bc479e564c)"><g clip-path="url(#48a48116fd)"><g clip-path="url(#6444f54a13)"><rect x="-95.5" width="540" fill="#000000" height="539.999987" y="-209.499998" fill-opacity="1"/></g></g></g></g></g></g><g clip-path="url(#7efc7218d4)"><g clip-path="url(#f3e4b05173)"><g transform="matrix(1, 0, 0, 1, 121, 142)"><g clip-path="url(#08d042ab10)"><g clip-path="url(#317e0ed4d5)"><g clip-path="url(#d20031ea3f)"><rect x="-203.5" width="540" fill="#000000" height="539.999987" y="-224.499998" fill-opacity="1"/></g></g></g></g></g></g><g clip-path="url(#f0be83ede8)"><g clip-path="url(#3bc90c7ac9)"><g transform="matrix(1, 0, 0, 1, 292, 145)"><g clip-path="url(#ac2530e230)"><g clip-path="url(#a01bff5240)"><g clip-path="url(#9ef285ea39)"><rect x="-374.5" width="540" fill="#000000" height="539.999987" y="-227.499998" fill-opacity="1"/></g></g></g></g></g></g><g clip-path="url(#f6412061a5)"><g clip-path="url(#12105c1faf)"><g transform="matrix(1, 0, 0, 1, 28, 142)"><g clip-path="url(#bf18bb394e)"><g clip-path="url(#4f92de8c9b)"><g clip-path="url(#a5cf366dac)"><rect x="-110.5" width="540" fill="#000000" height="539.999987" y="-224.499998" fill-opacity="1"/></g></g></g></g></g></g><g clip-path="url(#f3a2f5338f)"><g clip-path="url(#0e871d373b)"><g transform="matrix(1, 0, 0, 1, 214, 142)"><g clip-path="url(#34dd01b7d4)"><g clip-path="url(#7081a070d4)"><g clip-path="url(#07a0b2fcb0)"><rect x="-296.5" width="540" fill="#000000" height="539.999987" y="-224.499998" fill-opacity="1"/></g></g></g></g></g></g></svg>