<svg width="107" height="67" viewBox="0 0 107 67" fill="none" xmlns="http://www.w3.org/2000/svg">
<g clip-path="url(#clip0_719_7732)">
<path d="M0.696777 8.81921H6.58519V19.2333L8.90354 16.6929L12.0328 15.956L18.0323 18.4224L19.5397 24.6405V37.1542H13.6143V24.7886L12.8774 21.9924L10.411 20.9998L7.72586 22.2885L6.58519 26.0807V37.1576H0.696777V8.81921Z" fill="#F21622"/>
<path d="M40.2263 14.5595L43.3186 22.9884L40.2263 31.4172L32.9752 34.0283L25.687 31.4172L22.5947 22.9884L25.687 14.5595L32.9752 11.9451L40.2263 14.5595ZM36.1784 27.477L37.2821 22.9884L36.1784 18.5367L32.9752 16.9553L29.7382 18.5367L28.6346 22.9884L29.7382 27.477L32.9752 29.0215L36.1784 27.477Z" fill="#04A056"/>
<path d="M47.1542 5.82115H52.7129V8.76535L55.1793 5.85816L58.6383 5.04724L62.4305 6.03986L64.4527 9.02108L67.1008 5.92882L70.5968 5.04724L75.3446 6.88779L77.0371 12.2244V26.3195H71.1117V13.8058L70.5598 11.1207L68.6082 10.0911L66.1048 11.3428L65.0012 14.8388V26.3195H59.1128V13.8058L58.4129 10.9357L56.6093 10.0877L53.9949 11.6322L53.0763 15.717V26.3162H47.1509V5.82115H47.1542Z" fill="#FF97DA"/>
<path d="M91.5231 24.6977L93.8784 23.9608L95.1671 22.2683L99.3261 25.3976L97.2668 28.1197L91.1193 29.7011L83.9422 27.09L80.7759 18.6612L83.9422 10.2324L91.1193 7.61792L98.1114 10.0843L101.167 17.8133L101.143 19.4856L100.854 20.3537H86.7753L88.2121 23.6277L91.5231 24.6943V24.6977ZM95.0561 16.3429L93.8414 13.6207L90.9712 12.6281L88.2491 13.6207L86.8864 16.3429H95.0561Z" fill="#FDCB08"/>
<path d="M30.5961 52.5179L31.8848 49.8698L36.8883 52.2992L34.2738 56.6061L28.2003 58.3357L21.2083 55.7212L18.2271 47.2924L21.1713 38.8669L28.2003 36.2524L34.2738 37.982L36.9253 42.3999L31.9218 44.7923L30.6331 42.1038L28.2037 41.2559L25.2965 42.8374L24.2669 47.289L25.2595 51.7777L28.2037 53.3221L30.5961 52.5112V52.5179Z" fill="#FDCB08"/>
<path d="M52.5113 37.6488L51.8114 35.6265L49.197 34.5969L46.6566 35.5895L45.5529 37.6858L40.9532 35.2934L43.8974 31.0605L49.4897 29.6978L56.004 31.72L58.3964 38.1973V50.9667H52.73V48.8334L50.0449 51.1888L46.771 51.7776L41.8752 50.2702L39.8159 45.8892L42.0232 41.0304L52.5113 38.1232V37.6454V37.6488ZM45.812 45.4888L46.3638 46.7405L48.1674 47.2923L50.7818 46.4814L52.4743 44.5668L52.5113 41.7707L46.5859 43.6482L45.812 45.4888Z" fill="#F46604"/>
<path d="M65.1529 43.2816H62.0977V38.6078H65.1529V37.6152L66.5897 32.1306L71.4855 29.9973L76.0851 30.6232L75.2406 35.519L73.1073 35.1152L71.5258 35.667L70.974 37.5446V38.6112H75.318V43.2849H70.974V59.0726H65.1596V43.2849L65.1529 43.2816Z" fill="#0062DD"/>
<path d="M85.4156 61.9931L87.771 61.2563L89.0597 59.5638L93.2186 62.693L91.1594 65.4185L85.0119 67L77.8347 64.3855L74.6685 55.9567L77.8347 47.5312L85.0119 44.9168L92.0039 47.3832L95.0592 55.1121L95.0356 56.7844L94.7462 57.6525H80.6679L82.1047 60.9265L85.4156 61.9931ZM88.9487 53.6417L87.734 50.9196L84.8638 49.927L82.1417 50.9196L80.7789 53.6417H88.9487ZM91.8189 34.5666L86.3174 42.8945L82.4984 40.3743L86.3174 30.9023L91.8189 34.57V34.5666Z" fill="#04A056"/>
<path d="M50.6539 63.2045C50.8524 62.4911 51.5893 62.0739 52.2993 62.2724C51.5859 62.0739 51.1687 61.337 51.3672 60.627C51.5657 59.9137 52.3026 59.4965 53.0126 59.695C52.2993 59.4965 51.882 58.7596 52.0805 58.0496C52.2791 57.3363 53.016 56.919 53.7259 57.1175L39.8798 53.285L37.7397 61.0174L51.5859 64.8499C50.8726 64.6513 50.4553 63.9145 50.6539 63.2045Z" stroke="#FF97DA" stroke-width="1.21469" stroke-linejoin="bevel"/>
<path d="M59.9878 63.0126L53.7259 57.1175L52.7871 56.8584" stroke="#FF97DA" stroke-width="1.21469" stroke-linejoin="bevel"/>
<path d="M38.8135 57.1512L51.3709 60.6305" stroke="#FF97DA" stroke-width="1.21469" stroke-linejoin="bevel"/>
<path d="M59.9877 63.0127L51.5858 64.8499L50.8657 64.6514" stroke="#FF97DA" stroke-width="1.21469" stroke-linejoin="bevel"/>
<path d="M61.2798 63.3727L57.8275 60.2367L56.707 64.2812L61.2798 63.3727Z" fill="#FF97DA"/>
<path d="M35.1928 5.33998L26.5351 8.11595C26.239 8.21016 25.9227 8.22026 25.6199 8.14623L25.5829 8.13614C24.7349 7.92752 24.5196 7.22764 25.1051 6.57823C25.28 6.38644 25.4954 6.23502 25.7343 6.14081L34.9 2.51018C35.7917 2.15688 36.7978 2.62122 37.1073 3.52635L37.5515 4.81844C37.8543 5.69665 37.3866 6.65226 36.5084 6.95509L23.5673 11.4034C23.2342 11.5178 22.2955 11.474 21.959 11.3731L19.6002 10.6093C18.685 9.56618 18.786 8.56347 19.5464 7.32186L20.2025 6.25185C20.3977 5.93219 20.6938 5.68656 21.0471 5.55533L34.1867 0.635986" stroke="#FF97DA" stroke-width="1.36275" stroke-linejoin="bevel"/>
<path d="M101.87 38.6549L104.178 35.5189C105.207 36.1212 105.456 35.7275 105.456 35.7275C105.456 35.7275 105.618 35.5626 105.85 35.2766C105.85 35.2766 105.85 35.2766 105.85 35.2732C105.954 35.142 105.965 34.9603 105.884 34.8156C105.736 34.5464 105.372 34.0148 104.538 33.2611C103.3 32.144 102.839 32.1709 102.66 32.1103C102.62 32.0969 102.563 32.1171 102.512 32.1473C102.445 32.1844 102.388 32.2315 102.337 32.2887L102.031 32.6352C101.97 32.7025 101.93 32.7833 101.92 32.8708C101.893 33.0659 101.933 33.426 102.337 33.9509L99.568 36.6562C99.568 36.6562 98.3298 36.0606 97.0781 37.0667C95.8264 38.0728 100.345 41.8514 101.435 41.4409C102.516 41.0338 101.866 38.6582 101.866 38.6582L101.87 38.6549Z" stroke="#FF97DA" stroke-width="1.36275" stroke-linejoin="bevel"/>
<path d="M98.6865 39.6879L95.638 43.2007L94.4199 44.9201L95.9947 43.4262L99.0028 39.9638" stroke="#FF97DA" stroke-width="1.12721" stroke-linejoin="bevel"/>
<path d="M9.334 52.639L13.5535 55.7885L12.3455 50.7345L14.5528 48.1436L13.8428 45.1658L10.1516 42.2451L3.96713 43.2714L0.588867 47.8744L1.62859 52.215L5.70674 54.0489L9.334 52.639Z" stroke="#FF97DA" stroke-width="1.21469" stroke-linejoin="bevel"/>
<path d="M4.97021 49.6241L10.9899 46.5958" stroke="#FF97DA" stroke-width="1.21469" stroke-linejoin="bevel"/>
<path d="M6.0874 47.2789L7.61839 50.3443" stroke="white" stroke-width="1.36275" stroke-linejoin="bevel"/>
<path d="M8.49609 46.0811L10.0304 49.1464" stroke="white" stroke-width="1.36275" stroke-linejoin="bevel"/>
</g>
<defs>
<clipPath id="clip0_719_7732">
<rect width="106.621" height="67" fill="white"/>
</clipPath>
</defs>
</svg>
